<svg id="å" xmlns="http://www.w3.org/2000/svg" viewBox="0 0 105 105"><defs><style>.cls-1{fill:#07fe07;}.cls-2{fill:#fff;}</style></defs><title>å</title><circle class="cls-1" cx="52.5" cy="52.5" r="52.5"/><path class="cls-2" d="M67.79,82.45,64.06,70.21H45.33L41.6,82.45H29.86L48,30.84H61.32L79.53,82.45ZM63.57,27.36a8,8,0,0,1-2.49,6.12,9.12,9.12,0,0,1-6.44,2.32,8.88,8.88,0,0,1-6.33-2.25,8,8,0,0,1-2.39-6.12,8,8,0,0,1,2.38-6.06,8.75,8.75,0,0,1,6.34-2.27A9.1,9.1,0,0,1,61,21.42,7.68,7.68,0,0,1,63.57,27.36ZM61.46,61.07q-5.16-16.62-5.82-18.8t-.93-3.45q-1.16,4.5-6.64,22.25ZM58,27.43a3.27,3.27,0,0,0-1-2.48,3.72,3.72,0,0,0-4.85,0,3.23,3.23,0,0,0-.95,2.48,3.57,3.57,0,0,0,.84,2.5,3.28,3.28,0,0,0,2.53.91A3.2,3.2,0,0,0,58,27.43Z" transform="translate(-3 -3)"/></svg>