<svg id="b" xmlns="http://www.w3.org/2000/svg" viewBox="0 0 105 105"><defs><style>.cls-1{fill:#e20073;}.cls-2{fill:#fff;}</style></defs><title>b</title><circle class="cls-1" cx="52.5" cy="52.5" r="52.5"/><path class="cls-2" d="M38.33,28.05h16q10.93,0,15.88,3.11t4.93,9.9A12.49,12.49,0,0,1,73,48.62a8.62,8.62,0,0,1-5.75,3.55v.35q4.89,1.09,7,4.08a13.27,13.27,0,0,1,2.17,7.94,13.1,13.1,0,0,1-5.08,11q-5.08,3.94-13.8,3.94H38.33ZM49.22,48.41h6.33c3,0,5.09-.46,6.42-1.37a5.14,5.14,0,0,0,2-4.54,4.56,4.56,0,0,0-2.17-4.24Q59.63,37,55,37H49.22Zm0,8.64v13.4h7.11q4.5,0,6.64-1.72a6.37,6.37,0,0,0,2.15-5.28q0-6.39-9.15-6.4Z" transform="translate(-3 -3)"/></svg>