<svg id="c" xmlns="http://www.w3.org/2000/svg" viewBox="0 0 105 105"><defs><style>.cls-1{fill:#004e34;}.cls-2{fill:#fff;}</style></defs><title>c</title><circle class="cls-1" cx="52.5" cy="52.5" r="52.5"/><path class="cls-2" d="M55.16,38.38A11.1,11.1,0,0,0,45.63,43q-3.37,4.62-3.37,12.88,0,17.19,12.9,17.19a40.84,40.84,0,0,0,13.11-2.7v9.14a36.56,36.56,0,0,1-14.13,2.63q-11.22,0-17.16-6.8T31,55.82a31.79,31.79,0,0,1,2.92-14,21.06,21.06,0,0,1,8.38-9.25,24.78,24.78,0,0,1,12.82-3.22,34.59,34.59,0,0,1,15,3.62l-3.51,8.86a59.59,59.59,0,0,0-5.8-2.39A17.34,17.34,0,0,0,55.16,38.38Z" transform="translate(-3 -3)"/></svg>