<svg id="Layer_1" data-name="Layer 1" xmlns="http://www.w3.org/2000/svg" viewBox="0 0 350 350"><defs><style>.cls-1{fill:#99b7ba;}</style></defs><title>koordinatsystem</title><polygon class="cls-1" points="179.21 13.15 179.21 336.85 185.53 330.53 185.53 339.47 175 350 164.47 339.47 164.47 330.53 170.79 336.85 170.79 13.15 164.47 19.47 164.47 10.53 175 0 185.53 10.53 185.53 19.47 179.21 13.15"/><polygon class="cls-1" points="336.85 170.79 13.15 170.79 19.47 164.47 10.53 164.47 0 175 10.53 185.53 19.47 185.53 13.15 179.21 336.85 179.21 330.53 185.53 339.47 185.53 350 175 339.47 164.47 330.53 164.47 336.85 170.79"/></svg>