<?xml version="1.0" encoding="utf-8"?>
<!-- Generator: Adobe Illustrator 21.0.0, SVG Export Plug-In . SVG Version: 6.00 Build 0)  -->
<svg version="1.1" id="Lag_1" xmlns="http://www.w3.org/2000/svg" xmlns:xlink="http://www.w3.org/1999/xlink" x="0px" y="0px"
	 width="400px" height="400px" viewBox="0 0 400 400" style="enable-background:new 0 0 400 400;" xml:space="preserve">
<style type="text/css">
	.st0{fill:#020203;}
</style>
<path class="st0" d="M60.7,65.4h277.1c2.8,0,5.1-2.3,5.1-5.1c0-2.8-2.3-5.1-5.1-5.1H60.7c-2.8,0-5.1,2.3-5.1,5.1
	C55.6,63,57.9,65.4,60.7,65.4z"/>
<path class="st0" d="M60.7,105h277.1c2.8,0,5.1-2.3,5.1-5.1c0-2.8-2.3-5.1-5.1-5.1H60.7c-2.8,0-5.1,2.3-5.1,5.1
	C55.6,102.6,57.9,105,60.7,105z"/>
<path class="st0" d="M60.7,144.6h277.1c2.8,0,5.1-2.3,5.1-5.1s-2.3-5.1-5.1-5.1H60.7c-2.8,0-5.1,2.3-5.1,5.1S57.9,144.6,60.7,144.6z
	"/>
<path class="st0" d="M342.9,179c0-2.8-2.3-5.1-5.1-5.1H60.7c-2.8,0-5.1,2.3-5.1,5.1s2.3,5.1,5.1,5.1h277.1
	C340.6,184.1,342.9,181.8,342.9,179z"/>
<path class="st0" d="M395.6,271.5V7.5c0-1.3-0.5-2.6-1.4-3.6s-2.3-1.5-3.6-1.5H7.9c-2.8,0-5.1,2.3-5.1,5.1v263.9
	c0,2.8,2.3,5.1,5.1,5.1h232.7l0.2,1.3c0.8,6.7,2.7,13.2,5.8,19.3l0.4,0.7l-38.6,66.9c-0.7,1.2-0.9,2.6-0.5,3.9s1.2,2.4,2.3,3
	l45.7,26.4c0.8,0.5,1.6,0.7,2.6,0.7c0.5,0,0.9-0.1,1.3-0.2c1.3-0.4,2.4-1.2,3.1-2.4l35.4-61.3l35.4,61.4c0.7,1.2,1.7,2,3,2.4h0.1
	c0.5,0.1,0.8,0.1,1.2,0.1c0.9,0,1.8-0.2,2.5-0.7l45.7-26.4c1.2-0.7,2-1.7,2.4-3s0.2-2.7-0.5-3.9l-38.6-66.8l0.4-0.7
	c3.2-6.3,5.1-12.8,5.7-19.3l0.1-1.3h34.8C393.3,276.6,395.6,274.2,395.6,271.5z M256.5,386.7l-36.8-21.3l33.4-57.9l1.4,1.7
	c0.9,1,1.8,2,2.8,3c0.2,0.2,0.3,0.3,0.3,0.4l0,0c1.9,1.8,3.6,3.2,5.1,4.4l0.9,0.7c4,2.9,8.2,5.3,12.5,7.1c3.8,1.5,7.7,2.7,11.7,3.5
	l2.1,0.4L256.5,386.7z M291.8,318.6c-14.6-2.1-27.3-10.6-34.7-23.2c-4.3-7.2-6.5-15.5-6.5-24.1c0-26.3,21.4-47.7,47.7-47.7
	S346,245,346,271.3c-0.1,8.6-2.4,17-6.6,24.2l0,0c-0.9,1.5-2,3.2-3.5,5.1c-9,11.5-23,18.4-37.6,18.4
	C295.9,319,293.7,318.8,291.8,318.6z M376.9,365.6L340,386.7l-33.5-57.9l2.1-0.4c3.8-0.7,7.5-1.8,11.1-3.2l1.5-0.6
	c1.9-0.8,3.9-1.8,5.7-2.8c0.2-0.1,0.4-0.3,0.8-0.4c1.7-1.1,3.4-2.1,4.9-3.3l0.1-0.1c0.2-0.1,0.4-0.3,0.5-0.4
	c0.2-0.2,0.5-0.4,0.8-0.6c1.6-1.2,3.1-2.6,4.8-4.2c0,0,0-0.1,0.1-0.1c0.2-0.2,0.4-0.4,0.7-0.7c0.8-0.8,1.7-1.8,2.5-2.7l1.4-1.5
	l1.1,1.8L376.9,365.6z M385.5,266.3h-29.7l-0.1-1.4c-0.1-0.8-0.2-1.5-0.3-2.3c-0.1-0.5-0.2-0.9-0.2-1.4c-0.1-0.4-0.2-1-0.3-1.6
	l-0.1-0.5c-0.4-1.6-0.7-3.3-1.3-4.8c-0.1-0.4-0.3-0.8-0.4-1.1s-0.2-0.6-0.3-0.8c-0.2-0.5-0.4-1.1-0.6-1.7c-0.2-0.6-0.4-1.1-0.6-1.7
	c-0.1-0.2-0.3-0.6-0.4-0.9c-0.2-0.4-0.4-0.8-0.5-1.1c-0.4-0.9-0.8-1.8-1.3-2.8l-1.2-2.1c-0.5-0.9-1-1.7-1.5-2.4
	c-0.6-0.8-1.1-1.5-1.4-2.1l-1.8-2.3c-0.3-0.4-0.6-0.8-1-1.2c-0.2-0.2-0.4-0.4-0.6-0.7l-0.2-0.3c-0.6-0.7-1.1-1.3-1.7-1.8l-1.8-1.8
	c-0.7-0.7-1.4-1.3-2.1-1.9c-0.5-0.4-0.9-0.8-1.3-1.1c-0.2-0.2-0.4-0.4-0.6-0.5c-0.5-0.4-1-0.8-1.5-1.1c-0.3-0.2-0.6-0.4-0.8-0.6
	c-0.7-0.5-1.3-0.9-1.9-1.3l-0.1-0.1c-0.9-0.6-1.7-1.1-2.5-1.5c-0.7-0.4-1.4-0.8-2.1-1.2c-0.5-0.3-0.9-0.5-1.4-0.7s-1-0.5-1.4-0.7
	c-0.3-0.1-0.7-0.3-1.1-0.5s-0.7-0.3-1.1-0.5c-0.9-0.4-1.9-0.8-2.8-1h-0.1c-0.4-0.1-0.7-0.3-1.1-0.4c-0.4-0.1-0.7-0.2-1.1-0.4
	l-3.2-0.9c-0.8-0.2-1.5-0.4-2-0.5c-0.7-0.1-1.3-0.2-1.9-0.3s-1.2-0.2-1.9-0.3c-0.7-0.1-1.3-0.2-1.9-0.3c-3.5-0.4-7.7-0.4-11.4,0
	c-0.6,0.1-1.2,0.2-1.8,0.3c-0.5,0.1-0.9,0.1-1.3,0.2c-0.9,0.1-1.7,0.2-2.4,0.4c-0.8,0.2-1.6,0.4-2.3,0.5c-0.4,0.1-0.7,0.2-1.1,0.3
	c-0.7,0.2-1.4,0.3-2,0.6h-0.1c-0.5,0.1-1,0.3-1.6,0.6l-0.5,0.2c-0.5,0.2-1,0.4-1.5,0.6c-0.5,0.2-1,0.3-1.4,0.5s-0.8,0.4-1.2,0.6
	c-0.3,0.2-0.6,0.3-0.9,0.4c-0.9,0.4-1.8,0.8-2.7,1.3c-0.4,0.2-0.7,0.4-1.1,0.6c-0.4,0.2-0.7,0.4-1.1,0.6c-0.9,0.5-1.7,1-2.4,1.5
	c-0.4,0.3-0.8,0.5-1.1,0.8c-0.3,0.2-0.7,0.4-1,0.7l-2.4,1.8c-0.4,0.3-0.8,0.6-1.2,1c-0.2,0.2-0.4,0.4-0.7,0.6l-0.3,0.2
	c-0.7,0.6-1.3,1.1-1.8,1.7l-1.8,1.8c-0.7,0.7-1.3,1.4-1.9,2.1l-1.6,1.9c-0.4,0.5-0.8,1-1.2,1.5c-0.2,0.3-0.4,0.6-0.6,0.8
	c-0.1,0.2-0.3,0.4-0.4,0.6c-0.3,0.4-0.6,0.8-0.9,1.2l-0.1,0.1c-0.6,1-1.1,1.7-1.5,2.5c-0.2,0.3-0.3,0.5-0.5,0.8
	c-0.3,0.4-0.5,0.8-0.7,1.2l-0.4,0.8c-0.4,0.7-0.7,1.3-1,2c-0.2,0.4-0.4,0.8-0.5,1.2c-0.2,0.3-0.3,0.6-0.5,1c-0.4,0.9-0.8,2-1.1,3.2
	c-0.1,0.4-0.2,0.6-0.3,0.9c-0.1,0.3-0.3,0.6-0.4,1c-0.5,1.7-1,3.5-1.4,5.3c0,0.2-0.1,0.5-0.1,0.8s-0.1,0.5-0.1,0.8
	c-0.1,0.5-0.2,0.9-0.2,1.4c-0.1,0.8-0.3,1.5-0.3,2.3l-0.1,1.4H13V12.6h372.5V266.3z"/>
<path class="st0" d="M298.2,239.9c-17.4,0-31.5,14.1-31.5,31.5s14.1,31.5,31.5,31.5s31.5-14.1,31.5-31.5
	C329.7,254.1,315.6,240,298.2,239.9z M298.2,292.7c-11.7,0-21.3-9.6-21.3-21.3s9.6-21.3,21.3-21.3s21.3,9.6,21.3,21.3
	S309.9,292.7,298.2,292.7z"/>
</svg>
