<svg id="mindre" xmlns="http://www.w3.org/2000/svg" viewBox="0 0 348.19 348.19"><defs><style>.cls-1{fill:#e7e6e2;}.cls-2{fill:#cececc;}</style></defs><title>koordinatsystem_vandret</title><g id="lodret_fordeling"><path class="cls-1" d="M210.59,394.53l-7.85-7.85v-4.93a1,1,0,0,1,1.63-.67l3.9,3.89V56.47l-3.9,3.89a1,1,0,0,1-1.63-.67V54.76l7.85-7.85a.94.94,0,0,1,1.35,0l7.86,7.85v4.93a1,1,0,0,1-1.64.67l-3.89-3.88V385l3.89-3.88a1,1,0,0,1,1.64.67v4.93l-7.86,7.85A.94.94,0,0,1,210.59,394.53Z" transform="translate(-37.18 -46.63)"/></g><g id="vandret"><path class="cls-2" d="M385.08,221.4l-7.85,7.85H372.3a1,1,0,0,1-.67-1.63l3.89-3.9H47l3.89,3.9a1,1,0,0,1-.67,1.63H45.31l-7.85-7.85a.94.94,0,0,1,0-1.35l7.85-7.86h4.93a1,1,0,0,1,.67,1.64L47,217.72H375.51l-3.88-3.89a1,1,0,0,1,.67-1.64h4.93l7.85,7.86A.94.94,0,0,1,385.08,221.4Z" transform="translate(-37.18 -46.63)"/></g></svg>