<svg id="Layer_2" data-name="Layer 2" xmlns="http://www.w3.org/2000/svg" viewBox="0 0 105 105"><defs><style>.cls-1{fill:#cd0d4b;}.cls-2{fill:#fff;}</style></defs><title>ø</title><circle class="cls-1" cx="52.5" cy="52.5" r="52.5"/><path class="cls-2" d="M79,55.68q0,12.76-6.33,19.62T54.51,82.15A27.74,27.74,0,0,1,42.7,79.87l-3.17,4.74-5.69-3.79L37,76q-7-6.83-7-20.43Q30,42.77,36.39,36t18.19-6.77A27.69,27.69,0,0,1,66.67,31.7l3-4.39L75.25,31l-3.09,4.61Q79,42.4,79,55.68Zm-37.51,0q0,6.72,2,10.79L61.22,39.89a13.86,13.86,0,0,0-6.64-1.58q-6.51,0-9.81,4.38T41.47,55.68Zm26.08,0a26.34,26.34,0,0,0-1.79-10.44L48.18,71.64A13.74,13.74,0,0,0,54.51,73Q67.55,73,67.55,55.68Z" transform="translate(-3 -3)"/></svg>