<?xml version="1.0" encoding="utf-8"?>
<!-- Generator: Adobe Illustrator 22.1.0, SVG Export Plug-In . SVG Version: 6.00 Build 0)  -->
<svg version="1.1" id="Lag_1" xmlns="http://www.w3.org/2000/svg" xmlns:xlink="http://www.w3.org/1999/xlink" x="0px" y="0px"
	 viewBox="0 0 400 400" style="enable-background:new 0 0 400 400;" xml:space="preserve">
<style type="text/css">
	.st0{fill:#1B1514;}
</style>
<path class="st0" d="M385.8,138.4c-15.4-50-49.2-91-95.4-115.4c-28-14.8-59.6-22.7-91.2-22.8C91.2,0.2,3.4,88,3.4,195.9
	c0,51.3,19.7,99.8,55.5,136.6l0.3,0.4L51,391.8c-0.6,3.7,1.9,7.2,5.5,7.8c1.7,0.3,3.4-0.1,4.9-1.1l45.2-29.9l0.5,0.3
	c46.2,24.5,99.2,29.5,149.1,14.1c50-15.4,91-49.2,115.4-95.4C396.1,241.3,401.1,188.4,385.8,138.4z M328.9,323.8
	c-34.6,35.1-80.7,54.4-129.7,54.4c-31.4,0-62.4-8.1-89.6-23.4c-2.1-1.2-4.6-1.2-6.7,0l-36.8,23.9l7.1-47.3c0.3-2.1-0.4-4.2-1.9-5.8
	c-34.6-34.2-53.9-79.8-54.3-128.4c-0.3-48.7,18.3-94.5,52.5-129.2c34.2-34.7,79.8-54,128.5-54.3c48.7-0.4,94.5,18.3,129.2,52.5
	c34.7,34.2,54,79.8,54.3,128.5C381.7,243.2,363.1,289.1,328.9,323.8z"/>
<path class="st0" d="M195.9,80.1c-34.6,0-65.4,23.2-74.9,56.4c-1.7,6-1,12.3,2,17.8c3,5.5,8,9.4,14,11.2c6.1,1.7,12.4,1,17.8-2
	c5.5-3.1,9.4-8.1,11.2-14.1c3.8-13.3,16.2-22.5,30-22.5c17.2,0,31.1,14,31.1,31.1s-14,31.1-31.1,31.1c-12.9,0-23.4,10.5-23.4,23.4
	v26.6c0,12.9,10.5,23.4,23.4,23.4c6.3,0,12.1-2.4,16.6-6.9c4.4-4.4,6.8-10.3,6.7-16.5v-6.8l0.7-0.2c32.2-10.4,53.8-40.2,53.8-74.2
	C273.8,115.1,238.9,80.1,195.9,80.1z M211.7,221.8l-4.7,1.1v16.3c0,6.1-5,11-11,11s-11-5-11-11v-26.6c0-6.1,5-11,11-11
	c24,0,43.5-19.6,43.5-43.6c0-24-19.5-43.5-43.5-43.5c-19.4,0-36.5,13-41.7,31.6c-0.9,2.8-2.8,5.2-5.3,6.6c-2.5,1.4-5.5,1.8-8.4,1
	c-2.9-0.9-5.2-2.8-6.6-5.3c-1.4-2.5-1.8-5.5-1-8.4c7.9-28,33.9-47.5,63-47.5c36.2,0,65.6,29.4,65.6,65.6
	C261.6,188.4,241.1,214.6,211.7,221.8z"/>
<path class="st0" d="M195.6,271.1c-12.9,0-23.4,10.5-23.4,23.4c0,12.9,10.5,23.4,23.4,23.4c12.9,0,23.4-10.5,23.4-23.4
	C219,281.6,208.5,271.1,195.6,271.1z M195.6,305.7c-6.1,0-11-5-11-11s5-11,11-11c6.1,0,11,5,11,11S201.7,305.7,195.6,305.7z"/>
</svg>
