<?xml version="1.0" encoding="utf-8"?>
<!-- Generator: Adobe Illustrator 21.0.0, SVG Export Plug-In . SVG Version: 6.00 Build 0)  -->
<svg version="1.1" id="Lag_1" xmlns="http://www.w3.org/2000/svg" xmlns:xlink="http://www.w3.org/1999/xlink" x="0px" y="0px"
	 width="400px" height="400px" viewBox="0 0 400 400" style="enable-background:new 0 0 400 400;" xml:space="preserve">
<style type="text/css">
	.st0{fill:#12100E;}
</style>
<path class="st0" d="M392.9,145L392.9,145L201.7,81.9c-1.4-0.5-3-0.5-4.4,0l-191.1,63c-2.8,0.9-4.8,3.6-4.8,6.6s2,5.7,4.8,6.6
	l74.7,24.7v103.7c0,2.8,1.7,5.4,4.3,6.5c39.6,16.7,80.7,25.2,122.1,25.2c38.4,0,76.6-7.2,113.6-21.4c2.7-1.1,4.5-3.7,4.5-6.6V180.5
	l29.4-9.7v112.3l-1,0.4c-9.6,3.4-16.1,12.5-16.1,22.7c0,13.3,10.8,24,24,24s24-10.8,24-24c0-10.1-6.4-19.2-15.9-22.6l-1-0.4v-117
	l24.1-7.9c2.8-0.9,4.8-3.6,4.8-6.6C397.7,148.6,395.7,145.8,392.9,145z M311.1,285.4l-1,0.4c-33.7,12.3-68.2,18.5-102.7,18.5
	c-37.6,0-75.2-7.3-111.6-21.9l-1-0.4v-94.4l102.5,33.8c0.6,0.2,1.3,0.3,2.2,0.3s1.6-0.1,2.2-0.3l109.4-36.1V285.4z M199.5,207.3
	L30.8,151.6l168.7-55.7l168.7,55.7L199.5,207.3z M371.6,306.1c0,5.5-4.5,10-10,10s-10-4.5-10-10s4.5-10,10-10
	S371.6,300.6,371.6,306.1z"/>
</svg>
